<svg width="1272" height="421" viewBox="0 0 1272 421" fill="none" xmlns="http://www.w3.org/2000/svg">
<path d="M569.531 240.281H552.375V228.422H569.531C572.062 228.422 574.094 228 575.625 227.156C577.188 226.312 578.328 225.156 579.047 223.688C579.797 222.188 580.172 220.5 580.172 218.625C580.172 216.688 579.797 214.891 579.047 213.234C578.328 211.547 577.188 210.188 575.625 209.156C574.094 208.125 572.062 207.609 569.531 207.609H557.906V264H542.625V195.75H569.531C574.969 195.75 579.625 196.734 583.5 198.703C587.406 200.672 590.391 203.375 592.453 206.812C594.547 210.219 595.594 214.125 595.594 218.531C595.594 222.938 594.547 226.766 592.453 230.016C590.391 233.266 587.406 235.797 583.5 237.609C579.625 239.391 574.969 240.281 569.531 240.281ZM627.375 264.938C623.344 264.938 619.734 264.297 616.547 263.016C613.359 261.734 610.656 259.969 608.438 257.719C606.25 255.438 604.578 252.812 603.422 249.844C602.266 246.875 601.688 243.703 601.688 240.328V238.547C601.688 234.766 602.219 231.281 603.281 228.094C604.344 224.906 605.891 222.141 607.922 219.797C609.984 217.422 612.516 215.594 615.516 214.312C618.516 213 621.938 212.344 625.781 212.344C629.375 212.344 632.578 212.938 635.391 214.125C638.203 215.281 640.578 216.953 642.516 219.141C644.453 221.297 645.922 223.906 646.922 226.969C647.953 230 648.469 233.406 648.469 237.188V243.188H607.594V233.766H634.125V232.641C634.125 230.859 633.797 229.297 633.141 227.953C632.516 226.609 631.578 225.578 630.328 224.859C629.109 224.109 627.562 223.734 625.688 223.734C623.906 223.734 622.422 224.109 621.234 224.859C620.047 225.609 619.094 226.672 618.375 228.047C617.688 229.391 617.188 230.969 616.875 232.781C616.562 234.562 616.406 236.484 616.406 238.547V240.328C616.406 242.297 616.672 244.094 617.203 245.719C617.734 247.344 618.516 248.734 619.547 249.891C620.578 251.047 621.828 251.953 623.297 252.609C624.766 253.266 626.438 253.594 628.312 253.594C630.625 253.594 632.828 253.156 634.922 252.281C637.016 251.375 638.828 249.969 640.359 248.062L647.203 255.891C646.172 257.391 644.719 258.844 642.844 260.25C641 261.625 638.781 262.75 636.188 263.625C633.594 264.5 630.656 264.938 627.375 264.938ZM670.266 225.094V264H655.641V213.281H669.375L670.266 225.094ZM685.406 212.906L685.172 226.547C684.547 226.453 683.734 226.375 682.734 226.312C681.734 226.219 680.875 226.172 680.156 226.172C678.281 226.172 676.656 226.406 675.281 226.875C673.938 227.312 672.812 227.969 671.906 228.844C671.031 229.719 670.375 230.812 669.938 232.125C669.5 233.406 669.281 234.891 669.281 236.578L666.516 235.219C666.516 231.875 666.844 228.812 667.5 226.031C668.156 223.25 669.109 220.844 670.359 218.812C671.609 216.75 673.141 215.156 674.953 214.031C676.766 212.906 678.828 212.344 681.141 212.344C681.891 212.344 682.656 212.391 683.438 212.484C684.219 212.578 684.875 212.719 685.406 212.906ZM721.172 251.766V213.281H735.891V264H722.109L721.172 251.766ZM722.719 241.406L726.75 241.312C726.75 244.719 726.344 247.859 725.531 250.734C724.75 253.609 723.562 256.109 721.969 258.234C720.406 260.359 718.453 262.016 716.109 263.203C713.797 264.359 711.094 264.938 708 264.938C705.5 264.938 703.203 264.594 701.109 263.906C699.047 263.188 697.266 262.078 695.766 260.578C694.266 259.047 693.109 257.094 692.297 254.719C691.484 252.312 691.078 249.438 691.078 246.094V213.281H705.703V246.188C705.703 247.5 705.859 248.625 706.172 249.562C706.516 250.469 706.969 251.219 707.531 251.812C708.125 252.406 708.844 252.844 709.688 253.125C710.562 253.406 711.516 253.547 712.547 253.547C715.141 253.547 717.172 253.016 718.641 251.953C720.141 250.859 721.188 249.406 721.781 247.594C722.406 245.75 722.719 243.688 722.719 241.406ZM772.406 249.891C772.406 248.953 772.109 248.125 771.516 247.406C770.953 246.688 769.922 246.031 768.422 245.438C766.953 244.844 764.875 244.25 762.188 243.656C759.656 243.125 757.297 242.438 755.109 241.594C752.922 240.719 751.016 239.672 749.391 238.453C747.766 237.203 746.5 235.734 745.594 234.047C744.688 232.328 744.234 230.375 744.234 228.188C744.234 226.062 744.688 224.047 745.594 222.141C746.531 220.234 747.875 218.547 749.625 217.078C751.406 215.609 753.562 214.453 756.094 213.609C758.656 212.766 761.562 212.344 764.812 212.344C769.281 212.344 773.141 213.047 776.391 214.453C779.641 215.828 782.141 217.766 783.891 220.266C785.641 222.734 786.516 225.562 786.516 228.75H771.891C771.891 227.438 771.641 226.297 771.141 225.328C770.641 224.359 769.875 223.609 768.844 223.078C767.812 222.516 766.453 222.234 764.766 222.234C763.453 222.234 762.297 222.469 761.297 222.938C760.328 223.375 759.562 223.984 759 224.766C758.469 225.547 758.203 226.453 758.203 227.484C758.203 228.203 758.359 228.859 758.672 229.453C759.016 230.016 759.531 230.547 760.219 231.047C760.938 231.516 761.859 231.938 762.984 232.312C764.141 232.688 765.547 233.047 767.203 233.391C770.734 234.047 773.953 234.969 776.859 236.156C779.797 237.344 782.141 238.984 783.891 241.078C785.672 243.172 786.562 245.938 786.562 249.375C786.562 251.625 786.047 253.688 785.016 255.562C784.016 257.438 782.562 259.078 780.656 260.484C778.75 261.891 776.469 262.984 773.812 263.766C771.156 264.547 768.156 264.938 764.812 264.938C760.031 264.938 755.984 264.078 752.672 262.359C749.359 260.641 746.859 258.484 745.172 255.891C743.516 253.266 742.688 250.578 742.688 247.828H756.422C756.484 249.516 756.906 250.891 757.688 251.953C758.5 253.016 759.547 253.797 760.828 254.297C762.109 254.766 763.547 255 765.141 255C766.734 255 768.062 254.781 769.125 254.344C770.188 253.906 771 253.312 771.562 252.562C772.125 251.781 772.406 250.891 772.406 249.891ZM821.578 251.906V230.156C821.578 228.625 821.344 227.312 820.875 226.219C820.406 225.125 819.672 224.266 818.672 223.641C817.672 223.016 816.375 222.703 814.781 222.703C813.438 222.703 812.266 222.938 811.266 223.406C810.297 223.875 809.547 224.547 809.016 225.422C808.516 226.297 808.266 227.375 808.266 228.656H793.641C793.641 226.375 794.156 224.25 795.188 222.281C796.219 220.312 797.688 218.578 799.594 217.078C801.531 215.578 803.844 214.422 806.531 213.609C809.219 212.766 812.234 212.344 815.578 212.344C819.547 212.344 823.078 213.016 826.172 214.359C829.297 215.672 831.766 217.656 833.578 220.312C835.391 222.938 836.297 226.25 836.297 230.25V251.484C836.297 254.547 836.469 256.953 836.812 258.703C837.188 260.422 837.719 261.922 838.406 263.203V264H823.641C822.953 262.531 822.438 260.719 822.094 258.562C821.75 256.375 821.578 254.156 821.578 251.906ZM823.406 233.062L823.5 241.125H816.234C814.609 241.125 813.203 241.328 812.016 241.734C810.859 242.141 809.922 242.703 809.203 243.422C808.484 244.109 807.953 244.922 807.609 245.859C807.297 246.766 807.141 247.766 807.141 248.859C807.141 249.891 807.391 250.828 807.891 251.672C808.391 252.484 809.078 253.125 809.953 253.594C810.828 254.062 811.844 254.297 813 254.297C814.906 254.297 816.531 253.922 817.875 253.172C819.25 252.422 820.312 251.516 821.062 250.453C821.812 249.359 822.188 248.344 822.188 247.406L825.703 253.5C825.141 254.75 824.453 256.047 823.641 257.391C822.828 258.703 821.797 259.938 820.547 261.094C819.297 262.219 817.781 263.141 816 263.859C814.25 264.578 812.141 264.938 809.672 264.938C806.484 264.938 803.594 264.297 801 263.016C798.406 261.703 796.328 259.906 794.766 257.625C793.234 255.344 792.469 252.719 792.469 249.75C792.469 247.094 792.953 244.734 793.922 242.672C794.891 240.609 796.344 238.859 798.281 237.422C800.25 235.984 802.719 234.906 805.688 234.188C808.656 233.438 812.125 233.062 816.094 233.062H823.406ZM860.203 192V264H845.578V192H860.203ZM858.281 236.859L854.625 236.953C854.625 233.391 855.062 230.125 855.938 227.156C856.844 224.156 858.125 221.547 859.781 219.328C861.438 217.109 863.422 215.391 865.734 214.172C868.078 212.953 870.656 212.344 873.469 212.344C875.969 212.344 878.25 212.703 880.312 213.422C882.375 214.141 884.156 215.281 885.656 216.844C887.156 218.406 888.312 220.453 889.125 222.984C889.938 225.516 890.344 228.594 890.344 232.219V264H875.625V232.125C875.625 229.969 875.312 228.281 874.688 227.062C874.094 225.844 873.219 224.984 872.062 224.484C870.938 223.984 869.562 223.734 867.938 223.734C866.031 223.734 864.453 224.078 863.203 224.766C861.953 225.422 860.969 226.344 860.25 227.531C859.531 228.719 859.016 230.109 858.703 231.703C858.422 233.297 858.281 235.016 858.281 236.859ZM926.766 251.906V230.156C926.766 228.625 926.531 227.312 926.062 226.219C925.594 225.125 924.859 224.266 923.859 223.641C922.859 223.016 921.562 222.703 919.969 222.703C918.625 222.703 917.453 222.938 916.453 223.406C915.484 223.875 914.734 224.547 914.203 225.422C913.703 226.297 913.453 227.375 913.453 228.656H898.828C898.828 226.375 899.344 224.25 900.375 222.281C901.406 220.312 902.875 218.578 904.781 217.078C906.719 215.578 909.031 214.422 911.719 213.609C914.406 212.766 917.422 212.344 920.766 212.344C924.734 212.344 928.266 213.016 931.359 214.359C934.484 215.672 936.953 217.656 938.766 220.312C940.578 222.938 941.484 226.25 941.484 230.25V251.484C941.484 254.547 941.656 256.953 942 258.703C942.375 260.422 942.906 261.922 943.594 263.203V264H928.828C928.141 262.531 927.625 260.719 927.281 258.562C926.938 256.375 926.766 254.156 926.766 251.906ZM928.594 233.062L928.688 241.125H921.422C919.797 241.125 918.391 241.328 917.203 241.734C916.047 242.141 915.109 242.703 914.391 243.422C913.672 244.109 913.141 244.922 912.797 245.859C912.484 246.766 912.328 247.766 912.328 248.859C912.328 249.891 912.578 250.828 913.078 251.672C913.578 252.484 914.266 253.125 915.141 253.594C916.016 254.062 917.031 254.297 918.188 254.297C920.094 254.297 921.719 253.922 923.062 253.172C924.438 252.422 925.5 251.516 926.25 250.453C927 249.359 927.375 248.344 927.375 247.406L930.891 253.5C930.328 254.75 929.641 256.047 928.828 257.391C928.016 258.703 926.984 259.938 925.734 261.094C924.484 262.219 922.969 263.141 921.188 263.859C919.438 264.578 917.328 264.938 914.859 264.938C911.672 264.938 908.781 264.297 906.188 263.016C903.594 261.703 901.516 259.906 899.953 257.625C898.422 255.344 897.656 252.719 897.656 249.75C897.656 247.094 898.141 244.734 899.109 242.672C900.078 240.609 901.531 238.859 903.469 237.422C905.438 235.984 907.906 234.906 910.875 234.188C913.844 233.438 917.312 233.062 921.281 233.062H928.594ZM977.953 251.906V230.156C977.953 228.625 977.719 227.312 977.25 226.219C976.781 225.125 976.047 224.266 975.047 223.641C974.047 223.016 972.75 222.703 971.156 222.703C969.812 222.703 968.641 222.938 967.641 223.406C966.672 223.875 965.922 224.547 965.391 225.422C964.891 226.297 964.641 227.375 964.641 228.656H950.016C950.016 226.375 950.531 224.25 951.562 222.281C952.594 220.312 954.062 218.578 955.969 217.078C957.906 215.578 960.219 214.422 962.906 213.609C965.594 212.766 968.609 212.344 971.953 212.344C975.922 212.344 979.453 213.016 982.547 214.359C985.672 215.672 988.141 217.656 989.953 220.312C991.766 222.938 992.672 226.25 992.672 230.25V251.484C992.672 254.547 992.844 256.953 993.188 258.703C993.562 260.422 994.094 261.922 994.781 263.203V264H980.016C979.328 262.531 978.812 260.719 978.469 258.562C978.125 256.375 977.953 254.156 977.953 251.906ZM979.781 233.062L979.875 241.125H972.609C970.984 241.125 969.578 241.328 968.391 241.734C967.234 242.141 966.297 242.703 965.578 243.422C964.859 244.109 964.328 244.922 963.984 245.859C963.672 246.766 963.516 247.766 963.516 248.859C963.516 249.891 963.766 250.828 964.266 251.672C964.766 252.484 965.453 253.125 966.328 253.594C967.203 254.062 968.219 254.297 969.375 254.297C971.281 254.297 972.906 253.922 974.25 253.172C975.625 252.422 976.688 251.516 977.438 250.453C978.188 249.359 978.562 248.344 978.562 247.406L982.078 253.5C981.516 254.75 980.828 256.047 980.016 257.391C979.203 258.703 978.172 259.938 976.922 261.094C975.672 262.219 974.156 263.141 972.375 263.859C970.625 264.578 968.516 264.938 966.047 264.938C962.859 264.938 959.969 264.297 957.375 263.016C954.781 261.703 952.703 259.906 951.141 257.625C949.609 255.344 948.844 252.719 948.844 249.75C948.844 247.094 949.328 244.734 950.297 242.672C951.266 240.609 952.719 238.859 954.656 237.422C956.625 235.984 959.094 234.906 962.062 234.188C965.031 233.438 968.5 233.062 972.469 233.062H979.781ZM1016.62 224.109V264H1001.95V213.281H1015.73L1016.62 224.109ZM1014.7 236.859L1011.05 236.953C1011.05 233.141 1011.52 229.719 1012.45 226.688C1013.39 223.656 1014.72 221.078 1016.44 218.953C1018.19 216.797 1020.27 215.156 1022.67 214.031C1025.11 212.906 1027.8 212.344 1030.73 212.344C1033.11 212.344 1035.28 212.688 1037.25 213.375C1039.22 214.062 1040.91 215.172 1042.31 216.703C1043.75 218.203 1044.84 220.203 1045.59 222.703C1046.34 225.172 1046.72 228.219 1046.72 231.844V264H1032V231.797C1032 229.672 1031.7 228.031 1031.11 226.875C1030.52 225.719 1029.64 224.906 1028.48 224.438C1027.36 223.969 1025.98 223.734 1024.36 223.734C1022.64 223.734 1021.17 224.078 1019.95 224.766C1018.73 225.422 1017.73 226.344 1016.95 227.531C1016.17 228.719 1015.59 230.109 1015.22 231.703C1014.88 233.297 1014.7 235.016 1014.7 236.859Z" fill="black" fill-opacity="0.8"/>
<path fill-rule="evenodd" clip-rule="evenodd" d="M502 99C502 90.7157 495.284 84 487 84H235C226.716 84 220 90.7157 220 99V323C220 331.284 226.716 338 235 338H487C495.284 338 502 331.284 502 323V99ZM451.893 222.107C457.751 216.249 457.751 206.751 451.893 200.893L372.607 121.607C366.749 115.749 357.251 115.749 351.393 121.607L272.107 200.893C266.249 206.751 266.249 216.249 272.107 222.107L351.393 301.393C357.251 307.251 366.749 307.251 372.607 301.393L451.893 222.107Z" fill="#008F9D"/>
<rect x="328" y="178" width="66" height="66" rx="5" fill="#008F9D"/>
</svg>
