<svg width="1017" height="777" viewBox="0 0 1017 777" fill="none" xmlns="http://www.w3.org/2000/svg">
<path fill-rule="evenodd" clip-rule="evenodd" d="M805 136C805 127.716 798.284 121 790 121H227C218.716 121 212 127.716 212 136V640.121C212 648.405 218.716 655.121 227 655.121H790C798.284 655.121 805 648.405 805 640.121V136ZM711.331 399.718C717.189 393.86 717.189 384.363 711.331 378.505L521.209 188.383C515.352 182.525 505.854 182.525 499.996 188.383L309.874 378.505C304.016 384.363 304.016 393.86 309.874 399.718L499.996 589.84C505.854 595.698 515.352 595.698 521.209 589.84L711.331 399.718Z" fill="#1363DF"/>
<rect x="439.106" y="318.667" width="138.787" height="138.787" rx="5" fill="#1363DF"/>
</svg>
